<mxfile host="app.diagrams.net" modified="2022-12-09T07:46:21.112Z" agent="5.0 (Macintosh)" etag="nEa2288d5JruYqTSqPFM" version="20.3.0" type="github">
  <diagram id="x7uObS_zyOKbXY__8dLF" name="第 1 页">
    <mxGraphModel dx="1120" dy="1054" grid="1" gridSize="10" guides="1" tooltips="1" connect="1" arrows="1" fold="1" page="1" pageScale="1" pageWidth="827" pageHeight="1169" math="0" shadow="0">
      <root>
        <mxCell id="0" />
        <mxCell id="1" parent="0" />
        <mxCell id="cZjdY-NN3UJoRiiDsmOw-4" value="" style="edgeStyle=orthogonalEdgeStyle;rounded=0;orthogonalLoop=1;jettySize=auto;html=1;" edge="1" parent="1" source="cZjdY-NN3UJoRiiDsmOw-1" target="cZjdY-NN3UJoRiiDsmOw-3">
          <mxGeometry relative="1" as="geometry" />
        </mxCell>
        <mxCell id="cZjdY-NN3UJoRiiDsmOw-1" value="&lt;div&gt;Document&lt;/div&gt;" style="rounded=0;whiteSpace=wrap;html=1;" vertex="1" parent="1">
          <mxGeometry x="200" y="80" width="110" height="40" as="geometry" />
        </mxCell>
        <mxCell id="cZjdY-NN3UJoRiiDsmOw-6" value="" style="rounded=0;orthogonalLoop=1;jettySize=auto;html=1;" edge="1" parent="1" source="cZjdY-NN3UJoRiiDsmOw-3" target="cZjdY-NN3UJoRiiDsmOw-5">
          <mxGeometry relative="1" as="geometry" />
        </mxCell>
        <mxCell id="cZjdY-NN3UJoRiiDsmOw-3" value="&lt;div&gt;html&lt;/div&gt;" style="rounded=0;whiteSpace=wrap;html=1;" vertex="1" parent="1">
          <mxGeometry x="200" y="150" width="110" height="40" as="geometry" />
        </mxCell>
        <mxCell id="cZjdY-NN3UJoRiiDsmOw-10" value="" style="edgeStyle=none;rounded=0;orthogonalLoop=1;jettySize=auto;html=1;" edge="1" parent="1" source="cZjdY-NN3UJoRiiDsmOw-5" target="cZjdY-NN3UJoRiiDsmOw-9">
          <mxGeometry relative="1" as="geometry" />
        </mxCell>
        <mxCell id="cZjdY-NN3UJoRiiDsmOw-5" value="&lt;div&gt;head&lt;/div&gt;" style="rounded=0;whiteSpace=wrap;html=1;" vertex="1" parent="1">
          <mxGeometry x="60" y="230" width="110" height="40" as="geometry" />
        </mxCell>
        <mxCell id="cZjdY-NN3UJoRiiDsmOw-12" value="" style="edgeStyle=none;rounded=0;orthogonalLoop=1;jettySize=auto;html=1;" edge="1" parent="1" source="cZjdY-NN3UJoRiiDsmOw-7" target="cZjdY-NN3UJoRiiDsmOw-11">
          <mxGeometry relative="1" as="geometry" />
        </mxCell>
        <mxCell id="cZjdY-NN3UJoRiiDsmOw-7" value="body" style="rounded=0;whiteSpace=wrap;html=1;" vertex="1" parent="1">
          <mxGeometry x="350" y="230" width="110" height="40" as="geometry" />
        </mxCell>
        <mxCell id="cZjdY-NN3UJoRiiDsmOw-8" value="" style="rounded=0;orthogonalLoop=1;jettySize=auto;html=1;exitX=0.75;exitY=1;exitDx=0;exitDy=0;entryX=0.5;entryY=0;entryDx=0;entryDy=0;" edge="1" parent="1" source="cZjdY-NN3UJoRiiDsmOw-3" target="cZjdY-NN3UJoRiiDsmOw-7">
          <mxGeometry relative="1" as="geometry">
            <mxPoint x="245" y="200" as="sourcePoint" />
            <mxPoint x="205" y="240" as="targetPoint" />
          </mxGeometry>
        </mxCell>
        <mxCell id="cZjdY-NN3UJoRiiDsmOw-9" value="link" style="rounded=0;whiteSpace=wrap;html=1;" vertex="1" parent="1">
          <mxGeometry x="60" y="310" width="110" height="40" as="geometry" />
        </mxCell>
        <mxCell id="cZjdY-NN3UJoRiiDsmOw-14" value="" style="edgeStyle=none;rounded=0;orthogonalLoop=1;jettySize=auto;html=1;" edge="1" parent="1" source="cZjdY-NN3UJoRiiDsmOw-11" target="cZjdY-NN3UJoRiiDsmOw-13">
          <mxGeometry relative="1" as="geometry" />
        </mxCell>
        <mxCell id="cZjdY-NN3UJoRiiDsmOw-15" value="" style="edgeStyle=none;rounded=0;orthogonalLoop=1;jettySize=auto;html=1;" edge="1" parent="1" source="cZjdY-NN3UJoRiiDsmOw-11" target="cZjdY-NN3UJoRiiDsmOw-13">
          <mxGeometry relative="1" as="geometry" />
        </mxCell>
        <mxCell id="cZjdY-NN3UJoRiiDsmOw-16" value="" style="edgeStyle=none;rounded=0;orthogonalLoop=1;jettySize=auto;html=1;" edge="1" parent="1" source="cZjdY-NN3UJoRiiDsmOw-11" target="cZjdY-NN3UJoRiiDsmOw-13">
          <mxGeometry relative="1" as="geometry" />
        </mxCell>
        <mxCell id="cZjdY-NN3UJoRiiDsmOw-11" value="div" style="rounded=0;whiteSpace=wrap;html=1;" vertex="1" parent="1">
          <mxGeometry x="350" y="300" width="110" height="40" as="geometry" />
        </mxCell>
        <mxCell id="cZjdY-NN3UJoRiiDsmOw-20" value="" style="edgeStyle=none;rounded=0;orthogonalLoop=1;jettySize=auto;html=1;" edge="1" parent="1" source="cZjdY-NN3UJoRiiDsmOw-13" target="cZjdY-NN3UJoRiiDsmOw-19">
          <mxGeometry relative="1" as="geometry" />
        </mxCell>
        <mxCell id="cZjdY-NN3UJoRiiDsmOw-13" value="&lt;div&gt;p&lt;/div&gt;" style="rounded=0;whiteSpace=wrap;html=1;" vertex="1" parent="1">
          <mxGeometry x="270" y="390" width="110" height="40" as="geometry" />
        </mxCell>
        <mxCell id="cZjdY-NN3UJoRiiDsmOw-17" value="" style="edgeStyle=none;rounded=0;orthogonalLoop=1;jettySize=auto;html=1;exitX=0.75;exitY=1;exitDx=0;exitDy=0;" edge="1" parent="1" target="cZjdY-NN3UJoRiiDsmOw-18" source="cZjdY-NN3UJoRiiDsmOw-11">
          <mxGeometry relative="1" as="geometry">
            <mxPoint x="557.2222222222222" y="340" as="sourcePoint" />
          </mxGeometry>
        </mxCell>
        <mxCell id="cZjdY-NN3UJoRiiDsmOw-22" value="" style="edgeStyle=none;rounded=0;orthogonalLoop=1;jettySize=auto;html=1;" edge="1" parent="1" source="cZjdY-NN3UJoRiiDsmOw-18" target="cZjdY-NN3UJoRiiDsmOw-21">
          <mxGeometry relative="1" as="geometry" />
        </mxCell>
        <mxCell id="cZjdY-NN3UJoRiiDsmOw-18" value="span" style="rounded=0;whiteSpace=wrap;html=1;" vertex="1" parent="1">
          <mxGeometry x="440" y="390" width="110" height="40" as="geometry" />
        </mxCell>
        <mxCell id="cZjdY-NN3UJoRiiDsmOw-19" value="&lt;div style=&quot;font-family: Menlo, Monaco, &amp;quot;Courier New&amp;quot;, monospace; font-weight: normal; font-size: 13px; line-height: 20px;&quot;&gt;&lt;div&gt;&lt;font color=&quot;#330000&quot;&gt;&lt;span style=&quot;background-color: rgb(255, 255, 255);&quot;&gt;我是p标签&lt;/span&gt;&lt;/font&gt;&lt;/div&gt;&lt;/div&gt;" style="rounded=0;whiteSpace=wrap;html=1;" vertex="1" parent="1">
          <mxGeometry x="270" y="470" width="110" height="40" as="geometry" />
        </mxCell>
        <mxCell id="cZjdY-NN3UJoRiiDsmOw-21" value="&lt;div style=&quot;font-family: Menlo, Monaco, &amp;quot;Courier New&amp;quot;, monospace; font-weight: normal; font-size: 13px; line-height: 20px;&quot;&gt;&lt;div&gt;&lt;span style=&quot;background-color: rgb(255, 255, 255);&quot;&gt;&lt;font color=&quot;#330000&quot;&gt;我是span标签&lt;/font&gt;&lt;/span&gt;&lt;/div&gt;&lt;/div&gt;" style="rounded=0;whiteSpace=wrap;html=1;" vertex="1" parent="1">
          <mxGeometry x="440" y="470" width="110" height="40" as="geometry" />
        </mxCell>
      </root>
    </mxGraphModel>
  </diagram>
</mxfile>
